<mxfile host="www.draw.io" modified="2019-10-30T16:06:17.129Z" agent="Mozilla/5.0 (Windows NT 10.0; Win64; x64) AppleWebKit/537.36 (KHTML, like Gecko) Chrome/78.0.3904.70 Safari/537.36" etag="wiJ5JVlHJpuf_ORRojme" version="12.1.8" type="github" pages="1">
  <diagram name="Page-1" id="2a216829-ef6e-dabb-86c1-c78162f3ba2b">
    <mxGraphModel dx="2272" dy="804" grid="1" gridSize="10" guides="1" tooltips="1" connect="1" arrows="1" fold="1" page="1" pageScale="1" pageWidth="850" pageHeight="1100" background="#ffffff" math="0" shadow="0">
      <root>
        <mxCell id="0"/>
        <mxCell id="1" parent="0"/>
        <mxCell id="ryE629F6EdUo9BCDud7m-3" value="Credit utilization&lt;br&gt;" style="text;strokeColor=none;fillColor=none;html=1;fontSize=24;fontStyle=1;verticalAlign=middle;align=center;" parent="1" vertex="1">
          <mxGeometry x="20" y="20" width="100" height="40" as="geometry"/>
        </mxCell>
        <mxCell id="ryE629F6EdUo9BCDud7m-8" style="edgeStyle=orthogonalEdgeStyle;rounded=0;orthogonalLoop=1;jettySize=auto;html=1;entryX=0.5;entryY=0;entryDx=0;entryDy=0;" parent="1" source="ryE629F6EdUo9BCDud7m-4" target="ryE629F6EdUo9BCDud7m-7" edge="1">
          <mxGeometry relative="1" as="geometry"/>
        </mxCell>
        <mxCell id="ryE629F6EdUo9BCDud7m-4" value="Utilize credit" style="shape=ext;rounded=1;html=1;whiteSpace=wrap;" parent="1" vertex="1">
          <mxGeometry x="10" y="120" width="120" height="80" as="geometry"/>
        </mxCell>
        <mxCell id="ryE629F6EdUo9BCDud7m-9" style="edgeStyle=orthogonalEdgeStyle;rounded=0;orthogonalLoop=1;jettySize=auto;html=1;" parent="1" source="ryE629F6EdUo9BCDud7m-7" edge="1">
          <mxGeometry relative="1" as="geometry">
            <mxPoint x="-240" y="380" as="targetPoint"/>
            <Array as="points">
              <mxPoint x="-240" y="330"/>
            </Array>
          </mxGeometry>
        </mxCell>
        <mxCell id="ryE629F6EdUo9BCDud7m-7" value="Is there old credit for refinance" style="rhombus;whiteSpace=wrap;html=1;" parent="1" vertex="1">
          <mxGeometry y="280" width="140" height="100" as="geometry"/>
        </mxCell>
        <mxCell id="ryE629F6EdUo9BCDud7m-10" value="Yes&lt;br&gt;" style="text;html=1;resizable=0;points=[];autosize=1;align=left;verticalAlign=top;spacingTop=-4;" parent="1" vertex="1">
          <mxGeometry x="-145" y="296" width="40" height="20" as="geometry"/>
        </mxCell>
        <mxCell id="ryE629F6EdUo9BCDud7m-13" style="edgeStyle=orthogonalEdgeStyle;rounded=0;orthogonalLoop=1;jettySize=auto;html=1;entryX=0.5;entryY=0;entryDx=0;entryDy=0;" parent="1" source="ryE629F6EdUo9BCDud7m-11" target="ryE629F6EdUo9BCDud7m-12" edge="1">
          <mxGeometry relative="1" as="geometry"/>
        </mxCell>
        <mxCell id="ryE629F6EdUo9BCDud7m-11" value="Add Payment to old credit for refinance&lt;br&gt;" style="shape=ext;rounded=1;html=1;whiteSpace=wrap;" parent="1" vertex="1">
          <mxGeometry x="-300" y="380" width="120" height="80" as="geometry"/>
        </mxCell>
        <mxCell id="ryE629F6EdUo9BCDud7m-18" style="edgeStyle=orthogonalEdgeStyle;rounded=0;orthogonalLoop=1;jettySize=auto;html=1;entryX=0;entryY=0.5;entryDx=0;entryDy=0;" parent="1" source="ryE629F6EdUo9BCDud7m-12" target="ryE629F6EdUo9BCDud7m-28" edge="1">
          <mxGeometry relative="1" as="geometry"/>
        </mxCell>
        <mxCell id="ryE629F6EdUo9BCDud7m-12" value="Complete old credit&lt;br&gt;with refinance&lt;br&gt;" style="shape=ext;rounded=1;html=1;whiteSpace=wrap;" parent="1" vertex="1">
          <mxGeometry x="-300" y="500" width="120" height="90" as="geometry"/>
        </mxCell>
        <mxCell id="ryE629F6EdUo9BCDud7m-20" style="edgeStyle=orthogonalEdgeStyle;rounded=0;orthogonalLoop=1;jettySize=auto;html=1;entryX=0;entryY=0.5;entryDx=0;entryDy=0;" parent="1" source="ryE629F6EdUo9BCDud7m-16" target="ryE629F6EdUo9BCDud7m-19" edge="1">
          <mxGeometry relative="1" as="geometry"/>
        </mxCell>
        <mxCell id="ryE629F6EdUo9BCDud7m-25" style="edgeStyle=orthogonalEdgeStyle;rounded=0;orthogonalLoop=1;jettySize=auto;html=1;entryX=0.5;entryY=0;entryDx=0;entryDy=0;" parent="1" source="ryE629F6EdUo9BCDud7m-16" target="ryE629F6EdUo9BCDud7m-22" edge="1">
          <mxGeometry relative="1" as="geometry"/>
        </mxCell>
        <mxCell id="ryE629F6EdUo9BCDud7m-16" value="Is client have bonus point/loyal program" style="rhombus;whiteSpace=wrap;html=1;" parent="1" vertex="1">
          <mxGeometry y="980" width="140" height="90" as="geometry"/>
        </mxCell>
        <mxCell id="ryE629F6EdUo9BCDud7m-32" style="edgeStyle=orthogonalEdgeStyle;rounded=0;orthogonalLoop=1;jettySize=auto;html=1;entryX=0.5;entryY=0;entryDx=0;entryDy=0;" parent="1" source="ryE629F6EdUo9BCDud7m-19" target="ryE629F6EdUo9BCDud7m-31" edge="1">
          <mxGeometry relative="1" as="geometry"/>
        </mxCell>
        <mxCell id="ryE629F6EdUo9BCDud7m-19" value="Add payment for bonus point amount&lt;br&gt;" style="shape=ext;rounded=1;html=1;whiteSpace=wrap;" parent="1" vertex="1">
          <mxGeometry x="305" y="985" width="120" height="80" as="geometry"/>
        </mxCell>
        <mxCell id="ryE629F6EdUo9BCDud7m-21" value="Yes&lt;br&gt;" style="text;html=1;resizable=0;points=[];autosize=1;align=left;verticalAlign=top;spacingTop=-4;" parent="1" vertex="1">
          <mxGeometry x="200" y="1000" width="40" height="20" as="geometry"/>
        </mxCell>
        <mxCell id="ryE629F6EdUo9BCDud7m-22" value="Send to Legacy" style="shape=ext;rounded=1;html=1;whiteSpace=wrap;" parent="1" vertex="1">
          <mxGeometry x="10" y="1160" width="120" height="80" as="geometry"/>
        </mxCell>
        <mxCell id="ryE629F6EdUo9BCDud7m-26" value="No&lt;br&gt;" style="text;html=1;resizable=0;points=[];autosize=1;align=left;verticalAlign=top;spacingTop=-4;" parent="1" vertex="1">
          <mxGeometry x="80" y="1105" width="30" height="20" as="geometry"/>
        </mxCell>
        <mxCell id="ryE629F6EdUo9BCDud7m-27" value="No&lt;br&gt;" style="text;html=1;resizable=0;points=[];autosize=1;align=left;verticalAlign=top;spacingTop=-4;" parent="1" vertex="1">
          <mxGeometry x="80" y="420" width="30" height="20" as="geometry"/>
        </mxCell>
        <mxCell id="ryE629F6EdUo9BCDud7m-38" style="edgeStyle=orthogonalEdgeStyle;rounded=0;orthogonalLoop=1;jettySize=auto;html=1;entryX=0.5;entryY=0;entryDx=0;entryDy=0;" parent="1" source="ryE629F6EdUo9BCDud7m-28" target="ryE629F6EdUo9BCDud7m-30" edge="1">
          <mxGeometry relative="1" as="geometry"/>
        </mxCell>
        <mxCell id="ryE629F6EdUo9BCDud7m-28" value="Add credit" style="shape=ext;rounded=1;html=1;whiteSpace=wrap;" parent="1" vertex="1">
          <mxGeometry x="10" y="505" width="120" height="80" as="geometry"/>
        </mxCell>
        <mxCell id="ryE629F6EdUo9BCDud7m-29" style="edgeStyle=orthogonalEdgeStyle;rounded=0;orthogonalLoop=1;jettySize=auto;html=1;entryX=0.5;entryY=0;entryDx=0;entryDy=0;" parent="1" source="ryE629F6EdUo9BCDud7m-7" target="ryE629F6EdUo9BCDud7m-28" edge="1">
          <mxGeometry relative="1" as="geometry">
            <mxPoint x="70" y="380" as="sourcePoint"/>
            <mxPoint x="70" y="710" as="targetPoint"/>
          </mxGeometry>
        </mxCell>
        <mxCell id="ryE629F6EdUo9BCDud7m-44" style="edgeStyle=orthogonalEdgeStyle;rounded=0;orthogonalLoop=1;jettySize=auto;html=1;entryX=0.5;entryY=0;entryDx=0;entryDy=0;" parent="1" source="ryE629F6EdUo9BCDud7m-30" target="ryE629F6EdUo9BCDud7m-40" edge="1">
          <mxGeometry relative="1" as="geometry"/>
        </mxCell>
        <mxCell id="ryE629F6EdUo9BCDud7m-30" value="Add accruals to credit" style="shape=ext;rounded=1;html=1;whiteSpace=wrap;" parent="1" vertex="1">
          <mxGeometry x="10" y="610" width="120" height="80" as="geometry"/>
        </mxCell>
        <mxCell id="ryE629F6EdUo9BCDud7m-33" style="edgeStyle=orthogonalEdgeStyle;rounded=0;orthogonalLoop=1;jettySize=auto;html=1;entryX=1;entryY=0.5;entryDx=0;entryDy=0;" parent="1" source="ryE629F6EdUo9BCDud7m-31" target="ryE629F6EdUo9BCDud7m-22" edge="1">
          <mxGeometry relative="1" as="geometry"/>
        </mxCell>
        <mxCell id="ryE629F6EdUo9BCDud7m-31" value="Distribute payment to accruals" style="shape=ext;rounded=1;html=1;whiteSpace=wrap;" parent="1" vertex="1">
          <mxGeometry x="305" y="1160" width="120" height="80" as="geometry"/>
        </mxCell>
        <mxCell id="ryE629F6EdUo9BCDud7m-41" style="edgeStyle=orthogonalEdgeStyle;rounded=0;orthogonalLoop=1;jettySize=auto;html=1;entryX=1;entryY=0.5;entryDx=0;entryDy=0;exitX=1;exitY=0.5;exitDx=0;exitDy=0;" parent="1" source="ryE629F6EdUo9BCDud7m-40" target="ryE629F6EdUo9BCDud7m-30" edge="1">
          <mxGeometry relative="1" as="geometry">
            <mxPoint x="280" y="640" as="targetPoint"/>
            <Array as="points">
              <mxPoint x="320" y="840"/>
              <mxPoint x="320" y="650"/>
            </Array>
          </mxGeometry>
        </mxCell>
        <mxCell id="ryE629F6EdUo9BCDud7m-45" value="" style="edgeStyle=orthogonalEdgeStyle;rounded=0;orthogonalLoop=1;jettySize=auto;html=1;" parent="1" source="ryE629F6EdUo9BCDud7m-40" target="ryE629F6EdUo9BCDud7m-16" edge="1">
          <mxGeometry relative="1" as="geometry"/>
        </mxCell>
        <mxCell id="ryE629F6EdUo9BCDud7m-40" value="Should create additional accruals" style="rhombus;whiteSpace=wrap;html=1;" parent="1" vertex="1">
          <mxGeometry x="10" y="780" width="120" height="120" as="geometry"/>
        </mxCell>
        <mxCell id="ryE629F6EdUo9BCDud7m-42" value="Yes" style="text;html=1;resizable=0;points=[];autosize=1;align=left;verticalAlign=top;spacingTop=-4;" parent="1" vertex="1">
          <mxGeometry x="210" y="810" width="40" height="20" as="geometry"/>
        </mxCell>
        <mxCell id="ryE629F6EdUo9BCDud7m-46" value="No&lt;br&gt;" style="text;html=1;resizable=0;points=[];autosize=1;align=left;verticalAlign=top;spacingTop=-4;" parent="1" vertex="1">
          <mxGeometry x="80" y="920" width="30" height="20" as="geometry"/>
        </mxCell>
      </root>
    </mxGraphModel>
  </diagram>
</mxfile>
